<svg t="1588990338379" class="icon" viewBox="0 0 1024 1024" version="1.1" xmlns="http://www.w3.org/2000/svg" p-id="4093" width="130" height="130"><path d="M510.464 326.144c31.744 0 62.464 8.192 87.552 22.528-4.096 10.752-6.656 20.992-6.656 31.744 0 49.152 40.96 89.088 92.672 89.088 51.712 0 92.672-39.936 92.672-89.088s-40.96-89.088-92.672-89.088c-11.776 0-24.064 2.56-33.28 6.656-39.936-26.624-87.552-42.496-139.264-42.496-35.84 0-69.12 6.656-99.328 19.968l42.496 59.904c17.408-5.12 36.352-9.216 55.808-9.216z m172.544 174.08c-2.56 60.928-39.936 112.64-91.648 139.264-14.336-29.184-46.592-49.152-82.432-49.152-51.712 0-92.672 39.936-92.672 89.088s40.96 89.088 92.672 89.088c38.4 0 71.68-22.528 84.992-54.272 94.208-33.28 161.792-120.832 161.792-222.72 0-5.12 0-10.752-1.536-15.872l-71.168 24.576zM431.104 376.832c0-49.152-40.96-89.088-91.648-89.088-51.712 0-92.672 39.936-92.672 89.088 0 24.064 10.752 45.056 25.088 62.464-4.096 17.408-6.656 35.84-6.656 54.272 0 84.992 46.592 159.232 115.2 200.192l18.432-72.704c-37.376-30.72-62.464-76.8-62.464-127.488 0-9.216 1.536-18.432 2.56-27.648 52.224-0.512 92.16-39.936 92.16-89.088zM1024 512c0 282.624-229.376 512-512 512S0 794.624 0 512 229.376 0 512 0s512 229.376 512 512z" fill="#f47050" p-id="4094"></path></svg>